<?xml version="1.0" encoding="utf-8"?>
<!-- Generator: Adobe Illustrator 27.5.0, SVG Export Plug-In . SVG Version: 6.00 Build 0)  -->
<svg version="1.1" xmlns="http://www.w3.org/2000/svg" xmlns:xlink="http://www.w3.org/1999/xlink" x="0px" y="0px"
	 viewBox="0 0 500 500" style="enable-background:new 0 0 500 500;" xml:space="preserve">
<g id="BACKGROUND">
	<rect style="fill:#FFFFFF;" width="500" height="500"/>
</g>
<g id="OBJECTS">
	<g>
		<path style="fill:#EDF0FF;" d="M154.788,177.615c15.399-37.13,19.535-80.805,49.728-106.698
			c20.113-17.249,48.335-22.562,74.71-20.03c26.376,2.531,51.5,12.092,76.202,21.678c32.97,12.795,48.899,53.753,39.582,86.854
			c-7.781,27.643-31.413,48.46-40.316,75.762c-6.068,18.607-4.807,38.665-5.251,58.231c-0.563,24.812-4.183,50.176-16.05,71.974
			c-14.649,26.908-35.376,36.446-63.514,41.949c-33.131,6.48-60.632,11.423-93.492-1.68
			c-60.982-24.316-91.571-100.243-63.569-160.69c8.226-17.758,22.625-31.874,32.692-48.657
			C149.076,190.362,152.103,184.088,154.788,177.615z"/>
		<g>
			
				<line style="fill:none;stroke:#222221;stroke-width:0.5;stroke-miterlimit:10;" x1="55.159" y1="445.213" x2="241.772" y2="445.213"/>
			
				<line style="fill:none;stroke:#222221;stroke-width:0.5;stroke-miterlimit:10;" x1="319.449" y1="448.592" x2="355.114" y2="448.592"/>
			<path style="fill:none;stroke:#222221;stroke-width:0.5;stroke-miterlimit:10;" d="M308.187,435.453
				c41.828-0.398,84.828-0.398,127.123,0"/>
			<path style="fill:none;stroke:#222221;stroke-width:0.5;stroke-miterlimit:10;" d="M261.454,442.612
				c57.561,0.443,115.561,0.443,173.792,0"/>
			<path style="fill:none;stroke:#222221;stroke-width:0.5;stroke-miterlimit:10;" d="M356.312,438.964
				c19.545-0.021,39.089-0.056,58.634-0.106"/>
			<path style="fill:none;stroke:#222221;stroke-width:0.5;stroke-miterlimit:10;" d="M188.526,438.928
				c17.859,0.031,153.578,0.055,153.578,0.055"/>
			<path style="fill:none;stroke:#222221;stroke-width:0.5;stroke-miterlimit:10;stroke-dasharray:4;" d="M324.815,271.607
				c21.043,12.151,48.592,12.098,69.588-0.135c7.56-4.405,14.475-10.53,17.875-18.592c1.196-2.836,1.953-5.889,2.985-8.789
				c0.774-2.175,1.703-4.264,3.087-6.111c3.535-4.716,9.53-7.13,12.979-11.909c4.202-5.823,3.672-13.922,1.12-20.634
				c-2.552-6.711-6.846-12.609-9.95-19.084c-7.715-16.091-0.196-32.678-8.334-49.31c-8.839-18.066-25.131-32.079-42.164-42.193
				C324.3,66.525,264.093,60.233,211.566,78.082c-20.14,6.844-42.984,20.946-64.863,20.009c-17.192-0.736-35.395-3.06-43.101,17.967
				c-6.557,17.89,8.58,28.258,17.751,40.789c10.298,14.072,6.268,32.534,3.324,48.324c-3.29,17.642-0.468,36.588,14.647,48.258
				c9.161,7.073,20.816,9.953,32.186,12.117c15.762,3,30.953-0.168,44.521-8.824c3.789-2.417,7.387-5.249,10.062-8.861
				c4.537-6.127,6.053-13.974,6.553-21.581c1.229-18.671-3.239-49.797,4.363-64.157c3.773-7.128-3.547-8.351,1.866-14.33
				c4.461-4.927,10.979-7.661,17.57-8.516c9.654-1.253,19.756,1.373,27.577,7.169c16.578,12.284,16.426,31.414,12.163,49.799
				c-3.074,13.258-7.752,27.438-2.549,40.014C299.502,250.437,311.576,263.962,324.815,271.607z"/>
			<g>
				
					<rect x="236.028" y="89.42" style="fill:#D89CC7;stroke:#000000;stroke-width:0.5;stroke-miterlimit:10;" width="91.644" height="66.891"/>
				<rect x="231.24" y="96.099" width="91.644" height="66.891"/>
				
					<rect x="226.646" y="100.074" style="fill:#FFFFFF;stroke:#222221;stroke-width:0.5;stroke-miterlimit:10;" width="90.751" height="66.891"/>
				<g>
					
						<line style="fill:#FFFFFF;stroke:#222221;stroke-width:0.5;stroke-miterlimit:10;stroke-dasharray:4;" x1="288.59" y1="100.165" x2="288.59" y2="167.192"/>
					
						<line style="fill:#FFFFFF;stroke:#222221;stroke-width:0.5;stroke-miterlimit:10;stroke-dasharray:4;" x1="255.754" y1="100.165" x2="255.754" y2="167.192"/>
					
						<line style="fill:#FFFFFF;stroke:#222221;stroke-width:0.5;stroke-miterlimit:10;stroke-dasharray:4;" x1="226.318" y1="133.467" x2="317.054" y2="133.467"/>
				</g>
				<g>
					<path style="fill:#A8DCA4;stroke:#000000;stroke-width:0.5;stroke-miterlimit:10;" d="M277.677,145.093l-5.716,7.845
						l-3.944-4.398c-0.458,0.351-0.896,0.726-1.319,1.117l5.402,6.024l6.921-9.499C278.576,145.815,278.129,145.451,277.677,145.093
						z"/>
				</g>
				<g>
					<path style="fill:#A8DCA4;stroke:#000000;stroke-width:0.5;stroke-miterlimit:10;" d="M306.939,145.093l-5.716,7.845
						l-3.944-4.398c-0.458,0.351-0.896,0.726-1.319,1.117l5.402,6.024l6.921-9.499C307.838,145.815,307.391,145.451,306.939,145.093
						z"/>
				</g>
				<g>
					<path style="fill:#A8DCA4;stroke:#000000;stroke-width:0.5;stroke-miterlimit:10;" d="M247.036,144.792l-5.933,8.306
						l-4.19-4.586c-0.478,0.374-0.935,0.773-1.376,1.188l5.74,6.281l7.184-10.056C247.989,145.543,247.515,145.165,247.036,144.792z
						"/>
				</g>
				<g>
					<path style="fill:#A8DCA4;stroke:#000000;stroke-width:0.5;stroke-miterlimit:10;" d="M277.084,112.091l-5.716,7.845
						l-3.944-4.398c-0.458,0.351-0.896,0.726-1.319,1.117l5.402,6.024l6.921-9.499C277.983,112.813,277.536,112.449,277.084,112.091
						z"/>
				</g>
				<g>
					<path style="fill:#A8DCA4;stroke:#000000;stroke-width:0.5;stroke-miterlimit:10;" d="M306.171,112.091l-5.716,7.845
						l-3.944-4.398c-0.458,0.351-0.896,0.726-1.319,1.117l5.402,6.024l6.921-9.499C307.071,112.813,306.623,112.449,306.171,112.091
						z"/>
				</g>
				<g>
					<path style="fill:#A8DCA4;stroke:#000000;stroke-width:0.5;stroke-miterlimit:10;" d="M246.618,111.79l-5.933,8.306
						l-4.19-4.586c-0.479,0.374-0.935,0.773-1.376,1.188l5.74,6.281l7.184-10.056C247.571,112.541,247.097,112.162,246.618,111.79z"
						/>
				</g>
			</g>
			<g>
				<polyline style="fill:none;stroke:#000000;stroke-width:4;stroke-miterlimit:10;" points="89.902,445.086 104.954,367.615 
					146.959,367.292 165.511,445.409 				"/>
				<polyline style="fill:none;stroke:#000000;stroke-width:4;stroke-miterlimit:10;" points="104.254,438.953 116.505,365.573 
					158.51,365.25 176.712,439.276 				"/>
				<polyline style="fill:none;stroke:#000000;stroke-width:4;stroke-miterlimit:10;" points="330.379,442.262 345.431,358.252 
					387.436,357.902 405.988,442.612 				"/>
				<polyline style="fill:none;stroke:#000000;stroke-width:4;stroke-miterlimit:10;" points="344.731,435.611 356.983,356.037 
					398.987,355.687 417.189,435.961 				"/>
				<path style="fill:#FFFFFF;stroke:#222221;stroke-width:0.5;stroke-miterlimit:10;" d="M207.822,378.656
					c4.126,1.516,6.063,2.452,10.324,3.542c-10.911,15.085-27.2,42.046-30.412,46.336c-4.604-2.6-9.07-3.439-13.409-6.509
					c4.753-18.724,12.336-27.842,18.641-49.269C197.861,374.861,202.82,376.818,207.822,378.656z"/>
				<path d="M192.422,428.198c32.518,39.562-6.758,12.922-20.262,0.623c-2.441-3.053,1.501-8.355,2.988-13.104
					C185.399,428.112,195.213,414.057,192.422,428.198z"/>
				<g>
					<path style="fill:#FFFFFF;stroke:#222221;stroke-width:0.5;stroke-miterlimit:10;" d="M234.607,282.191l-3.252,10.628
						c6.392-0.075,12.808-0.205,19.184-0.111c1.656,0.025,3.529-0.357,5.09-0.848c1.729-0.544,3.371-1.499,4.392-2.954
						c0.479-0.683,0.817-1.498,0.739-2.327c-0.082-0.875-0.61-1.653-1.174-2.347c-1.076-1.327-2.461-2.568-4.169-2.839
						c-1.428-0.227-2.776,0.268-4.155,0.507c-1.45,0.251-3.003,0.384-4.48,0.316c-2.496-0.114-4.251-2.005-5.999-3.523
						c-0.737-0.64-1.71-0.959-2.687-0.88"/>
					<path style="fill:#FFFFFF;stroke:#222221;stroke-width:0.5;stroke-miterlimit:10;" d="M234.938,290.249l1.69,2.72
						c0.493,0.798,0.158,1.825-0.713,2.187l0,0c-0.658,0.273-1.429,0.077-1.875-0.476l-2.75-3.407"/>
					<path style="fill:#FFFFFF;stroke:#222221;stroke-width:0.5;stroke-miterlimit:10;" d="M238.455,289.436l1.807,2.935
						c0.483,0.874,0.09,1.952-0.847,2.322l0,0c-0.784,0.309-1.691,0.012-2.134-0.699l-2.343-3.746"/>
					<path style="fill:#FFFFFF;stroke:#222221;stroke-width:0.5;stroke-miterlimit:10;" d="M238.455,289.436l2.38,3.742
						c0.742,0.838,1.495,0.913,2.184,0.691l0.041-0.013c1.041-0.334,1.47-1.523,0.88-2.426c-0.472-0.722-1.019-1.56-1.504-2.303
						c-0.86-1.318-1.884-2.528-3.049-3.604c0,0-6.03-5.571-6.043-5.583c-4.589-4.24-10.725-1.666-16.326-3.021
						c-1.283-0.31-2.657-0.677-3.889-0.205c-0.767,0.294-1.381,0.883-1.924,1.499c-0.702,0.797-1.337,1.69-1.606,2.718
						c-0.269,1.028-0.116,2.213,0.603,2.995c0.804,0.874,2.083,1.067,3.249,1.29c4.795,0.918,8.817,3.78,13.014,6.15
						c0.326,0.192,0.628,0.42,0.901,0.679l3.363,3.189c0.427,0.359,1.019,0.464,1.542,0.273c0.942-0.343,1.273-1.47,0.665-2.262
						l-1.487-1.938"/>
					<path style="fill:#FFFFFF;stroke:#222221;stroke-width:0.5;stroke-miterlimit:10;" d="M238.097,277.813
						c-3.197,0.232-6.238,1.01-9.486,0.901c-0.414-0.014-0.842-0.034-1.229,0.103c-0.388,0.137-0.73,0.477-0.722,0.879
						c0.046,2.274,7.075,1.96,8.622,2.084c0.395,0.032,0.533,0.223,0.927,0.261"/>
					<path style="fill:#FFFFFF;stroke:#222221;stroke-width:0.5;stroke-miterlimit:10;" d="M229.612,291.508
						c0.447-0.627,1.138-1.711,0.584-2.482c-0.58-0.806-1.77-0.866-2.608-0.434c0.837-1.853-1.02-3.626-2.919-2.653
						c0.583-0.298,0.047-1.395-0.275-1.676c-0.784-0.684-1.359-0.321-2.056,0.08c-0.007-0.479-0.307-0.935-0.757-1.144
						c-0.975-0.45-1.998,0.421-2.614,1.043c-0.701,0.707-2.066,1.458-2.231,2.518c-0.238,1.525,1.408,1.773,2.577,1.799
						c-0.265,1.003,0.695,2.134,1.762,2.076c0.125-0.007,0.262-0.024,0.367,0.045c0.085,0.056,0.126,0.156,0.166,0.248
						c0.493,1.112,1.787,1.842,3.017,1.701C225.863,295,228.683,292.811,229.612,291.508z"/>
					<path style="fill:none;stroke:#222221;stroke-width:0.5;stroke-miterlimit:10;" d="M227.758,288.347
						c-0.263,0.167-0.461,0.412-0.654,0.652c-0.922,1.147-1.843,2.294-2.765,3.441"/>
					<path style="fill:none;stroke:#222221;stroke-width:0.5;stroke-miterlimit:10;" d="M221.424,290.435
						c1.375-1.443,2.581-3.037,3.591-4.743"/>
					<path style="fill:none;stroke:#222221;stroke-width:0.5;stroke-miterlimit:10;" d="M222.337,284.343
						c-0.918,1.206-2.107,3.011-3.025,4.217"/>
				</g>
				<path style="fill:#5F76E8;stroke:#000000;stroke-width:0.5;stroke-miterlimit:10;" d="M253.084,276.348
					c-0.016-0.384-0.032-0.767-0.046-1.151c11.796,0.059,23.138-1.448,35.318-1.737c0.832-0.02,1.68-0.038,2.469-0.304
					c2.246-0.758,5.631-6.634,6.934-8.587c1.75-2.623,3.266-5.432,4.813-8.178c3.545-6.294,6.457-14.169,11.301-19.592
					c3.754-4.201,10.16-6.013,15.503-7.054c3.072,6.983,1.83,15.48,4.902,22.463c0.347,0.789,0.699,1.6,0.743,2.46
					c0.054,1.074-0.376,2.106-0.797,3.095c-2.684,6.292-5.367,12.583-8.051,18.875c-2.317,5.433-3.626,11.687-9.161,14.71
					c-2.491,1.36-5.274,2.081-8.043,2.701c-9.033,2.025-18.26,3.114-27.505,3.494c-4.632,0.19-9.271,0.202-13.905,0.066
					c-1.081-0.032-12.525-0.252-12.576-0.606C254.012,290.155,253.378,283.259,253.084,276.348z"/>
				<path style="fill:#FFFFFF;stroke:#222221;stroke-width:0.5;stroke-miterlimit:10;" d="M209.373,388.318
					c3.553-2.59,5.406-3.68,8.679-6.619c6.486,17.451,19.862,45.97,21.646,51.023c-4.719,2.385-7.897,5.633-12.859,7.537
					c-12.932-14.351-16.304-25.72-30.622-42.863C200.684,394.494,205.066,391.457,209.373,388.318z"/>
				<path style="fill:#D89CC7;stroke:#000000;stroke-width:0.5;stroke-miterlimit:10;" d="M183.713,331.182
					c-1.651-0.831-3.369-1.496-5.133-1.939c-9.683-2.431-20.067-2.028-29.315-5.786c-12.992-5.28-21.521-17.857-27.366-30.605
					c-5.845-12.748-9.884-26.46-17.795-38.039c-4.345-6.36-10.237-12.211-17.739-13.955c-11.588-2.695-23.57,5.633-28.611,16.41
					c-5.041,10.776-4.609,23.268-3.07,35.065c2.903,22.248,8.174,48.011,24.864,64.333c4.574,4.473,9.839,8.237,15.684,11.045
					c0.041,0.02,0.083,0.04,0.124,0.06c6.844,3.273,14.382,4.83,21.969,4.83h66.388V331.182z"/>
				<path style="fill:#D89CC7;stroke:#000000;stroke-width:0.5;stroke-miterlimit:10;" d="M57.006,271.211
					c0.308,8.548,0.365,18.02,1.719,26.465"/>
				<path style="fill:#D89CC7;stroke:#000000;stroke-width:0.5;stroke-miterlimit:10;" d="M78.266,349.656
					c3.663,4.74,7.956,8.992,12.732,12.608"/>
				<path style="fill:#D89CC7;stroke:#000000;stroke-width:0.5;stroke-miterlimit:10;" d="M93.448,363.381
					c1.636,0.738,3.21,1.614,4.701,2.614"/>
				<path style="fill:#D89CC7;stroke:#000000;stroke-width:0.5;stroke-miterlimit:10;" d="M85.473,243.526
					c-2.83-0.767-5.881-0.527-8.66,0.408c-2.779,0.934-5.301,2.538-7.528,4.445"/>
				<path style="fill:#5F76E8;stroke:#000000;stroke-width:0.5;stroke-miterlimit:10;" d="M219.767,325.695
					c-8.807-12.769-52.115-12.78-67.47-14.974c-9.252-1.322,5.087-11.531-3.695-7.687c-9.531,4.172-13.292,13.798-21.854,19.184
					c9.292,1.92,17.157,6.78,24.788,12.183c6.099,4.318,14.135,6.725,21.478,7.606c7.314,0.878,18.851-7.109,20.938,1.716
					c1.172,4.957-2.265,18.296-3.878,23.128c-4.121,12.35-8.694,24.542-13.327,36.71c1.675,0.831,3.365,1.632,5.067,2.407
					c7.263,3.306,14.732,6.22,21.944,9.645c4.321-8.778,10.808-23.086,11.528-24.942c4.113-10.605,7.203-22.156,8.63-33.655
					C225.257,346.208,226.249,335.094,219.767,325.695z"/>
				<path style="fill:#5F76E8;stroke:#000000;stroke-width:0.5;stroke-miterlimit:10;" d="M142.302,321.975
					c9.138,3.256,19.166,2.079,28.846,2.696c8.43,0.537,16.879,2.521,24.192,6.747c7.313,4.226,13.424,10.829,16.127,18.832
					c1.275,3.776,18.301,42.759,21.864,53.097c1.954,5.668,1.528,6.278-3.414,9.421c-4.776,3.037-12.395,8.52-17.171,11.559
					c-15.849-19.34-29.032-40.861-39.06-63.767c-0.104-0.237-6.613,0.169-7.314,0.156c-2.466-0.047-4.898-0.227-7.36-0.186
					c-8.539,0.139-17.077,0.204-25.614,0.383c-6.603,0.138-14.725,0.615-20.627-2.91c-0.579-0.346-1.132-0.735-1.636-1.184
					c-1.913-1.703-3.043-4.108-3.944-6.506c-2.584-6.875-3.648-14.295-3.216-21.625c0.385-6.515,1.952-12.959,4.685-18.887
					c0.663-1.438,1.408-2.87,2.515-4.004c1.543-1.581,3.658-2.452,5.733-3.209"/>
				<path style="fill:#95CFB6;stroke:#000000;stroke-width:0.5;stroke-miterlimit:10;" d="M102.989,324.435
					c0.086,0.398,0.466,0.656,0.867,0.585c4.484-0.799,28.867-4.585,31.663-4.685c6.511-0.233,12.963-1.624,19.124-3.706
					c3.872-1.308,12.229-2.956,12.54-7.799c0.276-4.309,0.553-8.617,0.829-12.926c4.477,0.808,9.297,0.152,13.134-2.292
					c9.652-6.149,6.604-17.788,3.682-26.81c-2.392-7.386-4.615-14.991-8.532-21.741c-3.227-5.562-7.711-10.565-13.478-13.41
					c-4.651-2.294-9.498-3.077-13.973-5.867c-1.886-1.176-3.917-2.071-6.026-2.773c-0.779-0.259-1.82-0.785-2.641-0.786
					c-2.159-0.001-5.142,0.877-7.348,1.226c-3.355,0.531-6.767,1.385-9.869,2.786c-5.718,2.583-10.333,7.242-13.625,12.584
					c-3.479,5.646-5.573,12.046-7.139,18.482c-2.746,11.283-3.753,22.917-3.14,34.514
					C99.629,302.612,100.702,313.858,102.989,324.435z"/>
				<path d="M242.022,428.636c50.96-5.074,6.994,12.796-10.734,17.196c-3.895,0.334-6.115-5.888-9.239-9.762
					C238.049,434.429,231.811,418.463,242.022,428.636z"/>
				<path style="fill:none;stroke:#000000;stroke-width:3;stroke-miterlimit:10;" d="M59.2,317.249
					c79.231-21.019,98.53,33.074,78.643,60.38"/>
				<g>
					<defs>
						<path id="SVGID_1_" d="M85.795,245.05c45.64,1.88,37.457,44.173,60.362,66.337c16.544,18.797,31.313,19.39,49.714,27.727
							c7.45,4.122,9.181,10.807,4.924,19.63C187.202,385.628,41.492,241.208,85.795,245.05z"/>
					</defs>
					<clipPath id="SVGID_00000134226948082989063200000017419313294142035379_">
						<use xlink:href="#SVGID_1_"  style="overflow:visible;"/>
					</clipPath>
				</g>
				<path style="fill:#95CFB6;stroke:#000000;stroke-width:0.5;stroke-miterlimit:10;" d="M117.858,258.605
					c5.161,2.812,26.3,23.335,95.083,30.161c3.675-4.901,6.861-9.56,6.826-16.102c-6.802-1.069-30.022-6.526-50.931-15.752
					c-16.752-7.392-31.37-17.761-39.73-26.078"/>
				<path style="fill:#C98B77;" d="M187.201,300.563c-0.075,0-0.149,0-0.224,0"/>
				<g>
					<path d="M192.519,306.866h-68.838c-0.842,0-1.525-0.683-1.525-1.525v-0.218c0-0.842,0.683-1.525,1.525-1.525h68.838
						c0.842,0,1.525,0.683,1.525,1.525v0.218C194.044,306.184,193.361,306.866,192.519,306.866z"/>
					<path d="M194.268,306.866h-61.431l5.345-35.3c0.185-1.225,1.226-2.14,2.435-2.14h56.562c1.46,0,2.559,1.316,2.335,2.797
						L194.268,306.866z"/>
					<g>
						<line style="fill:none;stroke:#6BA7B3;stroke-miterlimit:10;" x1="171.572" y1="287.062" x2="174.236" y2="289.278"/>
						
							<line style="fill:none;stroke:#131834;stroke-width:0.5;stroke-miterlimit:10;" x1="168.07" y1="287.062" x2="170.734" y2="289.278"/>
						<line style="fill:none;stroke:#6BA7B3;stroke-miterlimit:10;" x1="164.568" y1="287.062" x2="167.232" y2="289.278"/>
					</g>
				</g>
				<path style="fill:#D89CC7;stroke:#000000;stroke-width:0.5;stroke-miterlimit:10;" d="M430.441,319.673
					c-4.241,12.716-10.7,24.317-21.121,32.969c-4.502,3.738-8.302,5.652-13.847,7.146c-6.7,1.806-13.664,2.231-20.57,2.46
					c-10.074,0.334-20.16,0.307-30.233-0.079c-6.241-0.239-13.356-1.08-16.952-6.186c-6.257-8.885,0.091-19.861,8.906-23.061
					c8.481-3.078,17.494-4.533,25.514-8.857c16.794-9.057,21.206-29.504,25.607-46.449c3.201-12.327,5.247-25.879,14.129-35.73
					c11.171-12.391,28.816-9.956,36.235,4.975C447.751,266.282,436.835,300.5,430.441,319.673z"/>
				<path style="fill:none;stroke:#000000;stroke-width:0.5;stroke-miterlimit:10;" d="M427.714,315.874
					c-2.839,12.919-9.641,24.939-19.254,34.025"/>
				<path style="fill:none;stroke:#000000;stroke-width:0.5;stroke-miterlimit:10;" d="M404.102,352.479
					c-1.913,0.965-3.928,1.727-6.001,2.267"/>
				<path style="fill:none;stroke:#000000;stroke-width:0.5;stroke-miterlimit:10;" d="M437.361,264.262
					c0.357,5.393,0.022,10.832-0.996,16.14"/>
				<path style="fill:none;stroke:#000000;stroke-width:0.5;stroke-miterlimit:10;" d="M416.123,237.08
					c-1.974-0.287-3.995,0.298-5.741,1.263c-1.745,0.965-3.258,2.294-4.755,3.611"/>
				<path style="fill:#FFFFFF;stroke:#222221;stroke-width:0.5;stroke-miterlimit:10;" d="M278.769,351.058
					c-4.618,7.125-8.857,14.612-13.833,21.845c-1.465,2.129-4.47,5.703-2.968,8.426c1.308,2.371,6.235,4.358,9.495,3.976
					c0.679-0.08,1.285-0.262,1.772-0.565c1.542-0.961,2.562-2.545,3.663-3.991c4.052-5.323,9.668-9.206,15.248-12.896
					c2.111-1.396,4.242-2.789,6.315-4.252l1.525-8.91L278.769,351.058z"/>
				<path d="M268.222,380.027c-1.262-0.809-2.576-1.91-2.56-3.393c0.007-0.601,0.242-1.174,0.341-1.767
					c0.099-0.593,0.022-1.286-0.452-1.656c-0.254-0.199-0.586-0.273-0.909-0.283c-1.634-0.048-2.895,1.359-4.479,1.399
					c-1.641,0.041-3.702-0.893-5.295-1.359c-2.779-0.812-15.545-6.927-16.505-1.355c-0.671,3.893,8.278,9.618,10.725,11.361
					c3.199,2.279,6.577,4.265,10.129,5.94c2.172,1.024,7.021,4.754,9.375,3.451c0.497-0.275,0.849-0.747,1.186-1.204
					c1.087-1.476,2.129-3,3.267-4.436c0.745-0.94,1.754-1.768,2.25-2.867c-2.213-1.367-4.71-2.346-6.942-3.747
					C268.309,380.082,268.266,380.055,268.222,380.027z"/>
				<path style="fill:#D47172;stroke:#000000;stroke-width:0.5;stroke-miterlimit:10;" d="M398.112,300.722
					c-7.812,6.458-23.468,3.134-32.638,1.608c-21.24-3.535-46.443-22.927-61.347,0.613c-7.687,12.141-29.881,45.941-34.371,53.381
					c1.335,2.371,3.466,4.265,5.569,5.951c2.78,2.228,5.618,4.416,8.47,6.55c2.546,1.905,5.247,3.541,8.195,4.741
					c0.574,0.234,1.157,0.454,1.746,0.658c0.063,0.013,0.12,0.023,0.186,0.037c0.714,0.147,1.455-0.164,1.836-0.785
					c0.98-1.599,1.914-3.228,2.808-4.885c7.085-13.133,18.572-25.169,25.211-38.524c8.172-16.442,25.583,7.633,30.334,14.232
					C363.108,353.753,422.582,359.667,398.112,300.722z"/>
				<path style="fill:#FFFFFF;stroke:#222221;stroke-width:0.5;stroke-miterlimit:10;" d="M325.873,433.168
					c-1.971,2.133-6.606,3.831-9.642,3.302c-4.836-0.843-3.805-6.288-3.855-10.016c-0.14-10.435,0.642-20.882,2.337-31.18
					c1.302-7.906,4.287-17.195,14.514-15.734c3.451,0.493,6.587,3.013,7.612,6.345c0.611,1.986,0.493,4.116,0.287,6.183
					c-0.781,7.838-2.122,7.038-4.559,14.453C331.345,410.241,327.188,431.745,325.873,433.168z"/>
				<path style="fill:#D47172;stroke:#000000;stroke-width:0.5;stroke-miterlimit:10;" d="M366.084,343.897
					c-2.395-2.58-11.717-12.418-14.217-14.899c-4.906-4.868-10.56-10.182-17.224-12.484c-11.625-4.015-18.418,6.072-20.475,15.964
					c-2.942,14.149-9.454,67.086-11.594,79.151c-0.065,0.368-0.131,0.737-0.197,1.105c11.317,3.45,21.377,3.657,33.21,3.894
					c2.115,0.042,3.296-19.005,4.006-24.406c0.978-7.444,1.619-14.928,2.643-22.367c0.18-1.31,2.176-12.828,2.818-18.073
					c0.177-1.443,1.424-2.514,2.877-2.469c3.27,0.102,6.535,0.115,9.788,0.292c4.185,0.227,8.374,0.37,12.565,0.427"/>
				<path d="M291.275,443.734c2.54-3.542,9.261-7.387,11.153-8.395c4.563-2.43,5.675-3.472,7.912-8.322
					c0.34-0.737,0.761-1.548,1.535-1.791c0.857-0.268,1.78,0.317,2.258,1.077c0.478,0.76,0.641,1.668,0.922,2.521
					c0.139,0.422,0.329,0.859,0.699,1.104c0.429,0.284,0.988,0.241,1.5,0.187c3.596-0.379,7.193-0.758,10.789-1.136
					c0.491,3.074,0.914,6.485-0.821,9.07c-0.803,1.197-1.995,2.078-3.229,2.821c-1.846,1.111-3.835,1.966-5.837,2.763
					c-5.749,2.287-11.676,4.127-17.71,5.497c-1.962,0.445-4.014,0.841-5.968,0.362C289.747,448.334,289.576,446.102,291.275,443.734
					z"/>
				<path style="fill:#5F76E8;stroke:#000000;stroke-width:0.5;stroke-miterlimit:10;" d="M304.236,308.543c2.378,0,4.756,0,7.134,0
					c12.896,0,25.793,0,38.689,0c7.818,0,15.635,0,23.453,0c3.658,0,7.315,0,10.973,0c1.621,0,3.529,0.323,5.099-0.031
					c1.88-0.424,3.399-1.916,5.391-1.969c0.679-0.018,1.347,0.146,2.016,0.265c3.167,0.565,6.507,0.117,9.413-1.262
					c0.764-0.363,1.508-0.799,2.182-1.316c0.943-0.724,1.748-1.606,2.28-2.664c0.855-1.7,0.928-3.679,0.872-5.581
					c-0.526-17.967-9.015-36.759-20.791-50.214c-5.295-6.05-11.608-11.194-18.602-15.107c-4.357-2.438-9.4-2.808-14.309-2.759
					c-5.153,0.052-10.312,0.104-15.453,0.5c-4.748,0.366-8.996-0.922-13.207,1.341"/>
				<path style="fill:#5F76E8;stroke:#000000;stroke-width:0.5;stroke-miterlimit:10;" d="M322.475,255.327
					c-1.365,8.589-1.813,10.447-1.985,19.141"/>
				<path style="fill:#FFFFFF;stroke:#222221;stroke-width:0.5;stroke-miterlimit:10;" d="M329.074,223.7
					c1.076,1.143,1.136,3.467,0.691,4.864c-0.143,0.449-0.405,0.906-0.751,1.217c1.433,1.085,2.998,1.99,4.73,2.511
					c2.15,0.647,4.516,0.691,6.707,0.221c3.165-0.678,6.735-1.823,8.918-4.25c-1.569-0.062-3.56-1.618-4.418-2.955
					c-0.941-1.465-1.261-3.244-1.36-4.982c-0.439-7.67,1.496-17.703-6.358-22.343c-1.734-1.024-3.582-1.941-5.537-2.457
					c-2.074-0.549-3.411-0.537-5.339,0.325c-1.766,0.79-3.242,0.724-4.736,2.143c-2.531,2.405-3.043,5.615-2.691,8.946
					c0.443,4.186,1.156,9.052,3.552,12.619c0.766,1.141,1.806,2.14,3.091,2.629C326.71,222.622,328.2,222.772,329.074,223.7z"/>
				<path d="M321.97,203.302c0.643-0.522,1.28-1.054,2.024-1.411c0.678-0.326,2.07-0.611,2.722-0.061
					c0.53,0.447,0.308,0.895,0.357,1.499c0.145,1.802,1.331,2.524,3.01,1.471c0.833-0.522,1.801-1.2,2.706-0.816
					c1.328,0.564,0.699,1.949,1.026,2.963c0.45,1.399,1.524,3.016,2.444,4.156c1.277,1.583,2.741,3.428,4.55,4.44
					c5.611,3.14,4.531-5.72,5.658-8.316c0.322-0.742,0.735-1.468,0.815-2.273c0.182-1.834-1.32-3.24-2.791-4.47
					c-0.236-0.197-0.471-0.39-0.698-0.579c-0.209-0.174-0.422-0.363-0.515-0.618c-0.25-0.689,0.924-2.184,0.973-3.085
					c0.085-1.569-0.929-3.325-2.076-4.317c-1.587-1.372-3.917-1.825-5.902-1.146c-0.866,0.296-1.8,0.792-2.638,0.424
					c-1.222-0.536-0.979-2.025-2.011-2.795c-0.917-0.685-2.302-0.843-3.262-0.159c-0.444,0.316-0.791,0.761-1.263,1.033
					c-1.059,0.61-2.386,0.192-3.607,0.256c-1.332,0.069-2.617,0.771-3.394,1.855c-0.595,0.829-0.915,1.873-1.692,2.534
					c-0.838,0.713-2.018,0.826-3.029,1.26c-2.616,1.123-3.771,4.702-2.395,7.195s4.908,3.448,7.407,2.084
					C320.956,204.117,321.465,203.712,321.97,203.302z"/>
				<path style="fill:#FFFFFF;stroke:#222221;stroke-width:0.5;stroke-miterlimit:10;" d="M332.638,209.113
					c0.235-0.648,0.518-1.293,0.968-1.816c1.626-1.893,4.855-1.237,6.21,0.616c0.644,0.881,0.985,2.012,0.871,3.182
					c-0.121,1.242-0.868,2.435-1.992,2.977"/>
				<path style="fill:#FFFFFF;stroke:#222221;stroke-width:0.5;stroke-miterlimit:10;" d="M359.203,308.816
					c-9.797,0.67-20.598,1.391-29.825-1.845c1.856-2.53,3.888-5.139,6.474-6.97c2.568-1.819,5.238-1.927,8.297-1.643
					c1.337,0.124,2.679,0.197,4.022,0.218c7.067,0.114,14.155-1.185,20.722-3.799c6.649-2.647,13.952-4.279,21.116-4.818
					c4.31-0.324,8.714-0.158,12.941,0.789c3.657,0.819,7.473,2.718,9.128,6.274c0.843,1.811,0.985,3.836,0.661,5.79
					c-0.192,1.157-1.043,4.662-2.614,4.662c-0.836,0.52-1.824,0.727-2.788,0.925c-7.669,1.575-15.953,0.337-23.78,0.077
					C375.417,308.206,367.328,308.261,359.203,308.816z"/>
				<path style="fill:none;stroke:#000000;stroke-miterlimit:10;" d="M324.382,217.299c1.292-0.103,2.544-0.655,3.491-1.54"/>
				<g>
					<defs>
						<path id="SVGID_00000098936236377684090330000004417102082398651827_" d="M337.233,197.983
							c12.2,7.207,0.723,25.479,10.896,30.766c-5.904,2.043-12.373,2.424-18.476,1.089c0.261,0.057,0.198-3.901,0.179-4.165
							c-0.201-2.742-2.186-2.695-4.257-3.484c-1.285-0.489-2.325-1.489-3.092-2.63c-2.396-3.568-3.108-8.433-3.551-12.619
							c-0.353-3.332,0.16-6.541,2.691-8.946c1.493-1.419,2.969-1.353,4.736-2.143c1.927-0.862,3.264-0.874,5.338-0.325
							C333.65,196.042,335.498,196.958,337.233,197.983z"/>
					</defs>
					<clipPath id="SVGID_00000032650447581946991240000000735001708902966422_">
						<use xlink:href="#SVGID_00000098936236377684090330000004417102082398651827_"  style="overflow:visible;"/>
					</clipPath>
					<g style="clip-path:url(#SVGID_00000032650447581946991240000000735001708902966422_);">
						<path d="M327.844,223.321c-0.02-0.064-0.035-0.135-0.056-0.197c1.959-0.18,4.052-0.628,5.678-1.61
							c-0.755,1.441-3.039,3.605-4.778,5.209C328.668,226.289,328.544,224.365,327.844,223.321z"/>
					</g>
				</g>
				<path style="fill:none;stroke:#000000;stroke-width:0.5;stroke-miterlimit:10;" d="M339.133,209.818
					c-0.692-1.368-2.452-2.086-3.903-1.594c-0.599,0.203-1.172,0.643-1.3,1.262"/>
				<path style="fill:none;stroke:#000000;stroke-width:0.5;stroke-miterlimit:10;" d="M336.059,208.173
					c0.981,0.433,1.477,1.722,1.038,2.7"/>
				<path style="fill:none;stroke:#000000;stroke-width:3;stroke-miterlimit:10;" d="M436.267,301.061
					c-43.113-18.477-98.169,21.769-75.46,63.057"/>
				
					<rect x="75.614" y="306.703" style="fill:#FFFFFF;stroke:#222221;stroke-width:0.5;stroke-miterlimit:10;" width="346.276" height="3.067"/>
				<g>
					<path d="M283.021,306.677h71.64c0.942,0,1.706-0.764,1.706-1.706l0,0c0-0.942-0.764-1.706-1.706-1.706h-71.64
						c-0.942,0-1.706,0.764-1.706,1.706l0,0C281.315,305.913,282.079,306.677,283.021,306.677z"/>
					<path d="M281.081,306.677h64.135l-5.581-36.854c-0.194-1.279-1.28-2.234-2.542-2.234h-59.052c-1.524,0-2.672,1.374-2.438,2.92
						L281.081,306.677z"/>
					<path style="fill:#222221;stroke:#FFFFFF;stroke-width:0.5;stroke-miterlimit:10;" d="M304.228,284.502
						c0,1.696,1.375,3.07,3.07,3.07c1.696,0,3.07-1.375,3.07-3.07c0-1.695-1.375-3.07-3.07-3.07
						C305.603,281.432,304.228,282.807,304.228,284.502z"/>
				</g>
				<path style="fill:#FFFFFF;stroke:#222221;stroke-width:0.5;stroke-miterlimit:10;" d="M154.03,222.91
					c-0.749,0.795-0.987,2.183-1.016,3.23c-0.016,0.589,0.034,1.236,0.315,1.766c0.262,0.494,0.945,1.07,1.531,0.983
					c-2.097,2.397-5.538,3.345-8.694,2.915c-3.156-0.43-6.039-2.086-8.45-4.167c-0.626-0.54-1.23-1.115-1.722-1.78
					c-0.633-0.855-1.066-1.837-1.494-2.811c0.122,0.278,1.62,0.214,1.911,0.132c0.658-0.184,1.058-0.661,1.423-1.208
					c0.742-1.112,1.076-2.441,1.344-3.751c1.497-7.323-1.109-16.419,6.692-21.027c1.734-1.024,3.582-1.941,5.537-2.457
					c2.074-0.549,3.411-0.536,5.338,0.325c1.766,0.79,3.242,0.724,4.735,2.143c2.531,2.405,3.044,5.615,2.691,8.946
					c-0.443,4.186-1.156,9.052-3.551,12.619c-0.766,1.141-1.806,2.14-3.091,2.63C156.394,221.832,154.904,221.982,154.03,222.91z"/>
				<path d="M146.845,210.313c-1.113,1.379-2.235,2.813-3.674,3.87c-0.928,0.682-2.885,1.924-4.03,1.066
					c-0.908-0.68-0.541-4.043-0.578-5.068c-0.075-2.112-0.024-4.231,0.233-6.329c0.221-1.798,0.599-3.596,1.372-5.234
					c0.774-1.638,1.971-3.115,3.555-3.993c1.504-0.834,3.032-0.883,4.69-1.06c2.086-0.223,4.185-0.391,6.283-0.284
					c2.477,0.127,4.962,0.633,7.418,0.286c1.232-0.174,2.436-0.561,3.679-0.613c1.243-0.052,2.603,0.309,3.33,1.318
					c0.784,1.088,0.62,2.582,0.291,3.882c-0.308,1.219-0.739,2.424-1.458,3.456c-0.651,0.934-1.971,2.22-3.126,2.506
					c-1.157,0.287-2.941-0.712-4.062-1.07c-0.676-0.216-1.201-0.757-1.917-0.888c-0.563-0.103-1.15,0.07-1.639,0.367
					c-1.534,0.93-2.183,2.744-4.192,1.485c-0.833-0.522-1.8-1.2-2.706-0.815c-1.328,0.564-0.699,1.949-1.025,2.963
					C148.839,207.556,147.764,209.173,146.845,210.313z"/>
				<path style="fill:#FFFFFF;stroke:#222221;stroke-width:0.5;stroke-miterlimit:10;" d="M150.465,208.323
					c-0.235-0.648-0.518-1.293-0.968-1.816c-1.626-1.893-4.856-1.237-6.21,0.616c-0.644,0.881-0.985,2.012-0.871,3.182
					c0.21,2.16,2.361,3.855,4.509,3.083c0.334-0.12,0.676-0.328,0.78-0.668"/>
				<path style="fill:none;stroke:#000000;stroke-miterlimit:10;" d="M158.721,216.509c-1.292-0.103-2.544-0.655-3.491-1.54"/>
				<g>
					<defs>
						<path id="SVGID_00000071543920472186757050000005763598181649120401_" d="M145.871,197.193
							c-12.2,7.207-0.723,25.479-10.896,30.766c5.904,2.043,12.373,2.424,18.476,1.089c-0.261,0.057-0.198-3.902-0.179-4.165
							c0.2-2.742,2.186-2.695,4.257-3.484c1.285-0.489,2.325-1.489,3.092-2.63c2.396-3.568,3.108-8.433,3.551-12.619
							c0.353-3.332-0.16-6.541-2.691-8.946c-1.493-1.419-2.969-1.353-4.735-2.143c-1.927-0.862-3.265-0.874-5.338-0.326
							C149.453,195.252,147.605,196.168,145.871,197.193z"/>
					</defs>
					<clipPath id="SVGID_00000038384771050660254500000000385148933853297539_">
						<use xlink:href="#SVGID_00000071543920472186757050000005763598181649120401_"  style="overflow:visible;"/>
					</clipPath>
					<g style="clip-path:url(#SVGID_00000038384771050660254500000000385148933853297539_);">
						<path d="M155.26,222.531c0.02-0.064,0.035-0.135,0.056-0.197c-1.959-0.18-4.052-0.628-5.678-1.61
							c0.755,1.441,3.039,3.605,4.778,5.209C154.435,225.499,154.56,223.575,155.26,222.531z"/>
					</g>
				</g>
				<path style="fill:none;stroke:#000000;stroke-width:0.5;stroke-miterlimit:10;" d="M145.605,207.398
					c0.744-0.137,1.55,0.126,2.071,0.674c0.521,0.549,0.741,1.367,0.566,2.103"/>
				<path style="fill:#5F76E8;stroke:#000000;stroke-width:0.5;stroke-miterlimit:10;" d="M368.266,256.845
					c9.488,10.228,13.791,20.242,18.645,33.321"/>
				<path style="fill:#95CFB6;stroke:#000000;stroke-width:0.5;stroke-miterlimit:10;" d="M165.407,245.753
					c1.406,3.511,2.299,7.226,2.643,10.993"/>
				<path style="fill:#5F76E8;stroke:#000000;stroke-width:0.5;stroke-miterlimit:10;" d="M202.365,340.613
					c2.206,2.136,4.029,4.667,5.354,7.437"/>
				<path style="fill:#5F76E8;stroke:#000000;stroke-width:0.5;stroke-miterlimit:10;" d="M208.75,351.266
					c0.782,1.415,1.487,2.873,2.112,4.364"/>
				<path style="fill:#5F76E8;stroke:#000000;stroke-width:0.5;stroke-miterlimit:10;" d="M222.965,338.878
					c0.052,3.332,0.007,6.666-0.134,9.996"/>
				<path style="fill:#5F76E8;stroke:#000000;stroke-width:0.5;stroke-miterlimit:10;" d="M173.643,360.328
					c0.869-0.516,1.788-0.947,2.739-1.286"/>
				<path style="fill:#5F76E8;stroke:#000000;stroke-width:0.5;stroke-miterlimit:10;" d="M112.939,350.803
					c0.557,1.382,1.354,2.691,2.478,3.669c1.124,0.978,2.597,1.601,4.085,1.524"/>
				<path style="fill:#5F76E8;stroke:#000000;stroke-width:0.5;stroke-miterlimit:10;" d="M121.89,356.61
					c1.013,0.228,2.066,0.279,3.096,0.148"/>
				<path style="fill:#FFFFFF;stroke:#222221;stroke-width:0.5;stroke-miterlimit:10;" d="M104.57,262.997
					c-0.672,3.914-1.14,7.863-1.402,11.826"/>
				<path style="fill:#FFFFFF;stroke:#222221;stroke-width:0.5;stroke-miterlimit:10;" d="M103.024,278.905
					c0.047,0.985,0.094,1.971,0.141,2.956"/>
				<path d="M127.144,264.827c-2.678-1.65-5.871-3.74-8.322-5.692l-0.582-0.368c0.764,1.456,0.961,3.141,1.556,4.673
					c0.595,1.533,1.824,3.036,3.467,3.114c1.428,0.068,2.549,0.125,3.689,1.162c0.528,0.48,0.972,1.055,1.547,1.479
					c0.822,0.605,1.962,0.877,2.968,0.666c1.005-0.211,1.609-1.447,2.717-1.185C131.25,267.44,129.834,266.485,127.144,264.827z"/>
				<path d="M375.512,269.843c0.496,0.546,1.127,0.978,1.52,1.603c0.484,0.768,0.545,1.731,0.449,2.634
					c-0.117,1.097-0.38,2.39,0.417,3.153c0.763,0.731,2.166,0.563,2.771,1.429c0.395,0.566,0.285,1.38,0.703,1.929
					c0.465,0.61,1.357,0.637,2.123,0.608c-0.292-0.796-0.657-1.562-1.021-2.328c-0.939-1.97-1.864-3.948-2.817-5.912
					c-0.311-0.641-0.522-1.387-0.874-1.999c-0.416-0.723-0.998-1.264-1.366-2.046c-0.609-1.292-1.289-2.586-2.329-3.565
					c-0.058-0.054-0.13-0.111-0.207-0.093c-0.066,0.015-0.106,0.08-0.139,0.138C373.914,266.861,374.394,268.614,375.512,269.843z"
					/>
				<path d="M280.803,368.925c0.635,0.751,0.744,1.798,1.054,2.731c0.31,0.934,1.051,1.906,2.032,1.829
					c0.54-0.042,0.998-0.397,1.42-0.737c0.775-0.625,1.55-1.25,2.325-1.875c-1.371-0.385-2.558-1.23-3.715-2.06
					c-1.013-0.727-1.968-1.536-2.973-2.274c-1.186-0.871-2.244-2.096-3.407-2.863c0.156,1.559-0.225,2.28,0.96,3.442
					C279.186,367.79,280.185,368.193,280.803,368.925z"/>
				<path style="fill:none;stroke:#95CFB6;stroke-miterlimit:10;" d="M299.161,434.856c0.655-0.359,1.493,0.088,1.918,0.702
					c0.425,0.614,0.597,1.368,0.967,2.017c0.478,0.84,1.297,1.48,2.228,1.741c0.227,0.064,0.476,0.105,0.694,0.016
					c0.61-0.247,0.469-1.142,0.221-1.752c-0.328-0.803-0.655-1.606-0.983-2.41c-0.345-0.845-0.583-2.036,0.213-2.484
					c0.59-0.333,1.357,0.062,1.744,0.618c0.387,0.556,0.533,1.242,0.837,1.847s0.879,1.174,1.554,1.113
					c0.972-0.086,1.356-1.35,1.184-2.31c-0.24-1.335-1.106-2.544-2.294-3.2"/>
				<path style="fill:none;stroke:#95CFB6;stroke-miterlimit:10;" d="M196.88,430.123c-1.616,1.303-2.957,2.945-3.913,4.788
					c-0.169,0.326-0.33,0.673-0.329,1.041c0.001,0.368,0.209,0.76,0.563,0.858c0.326,0.091,0.661-0.08,0.956-0.246
					c1.776-0.998,3.553-1.996,5.329-2.994c-0.53,1.234-1.06,2.469-1.59,3.703c-0.397,0.925-0.764,2.089-0.111,2.854
					c0.297,0.348,0.752,0.524,1.204,0.592c1.596,0.239,3.278-0.893,3.658-2.461"/>
				<path style="fill:none;stroke:#95CFB6;stroke-miterlimit:10;" d="M250.495,369.789c-0.559,1.483-0.853,3.065-0.862,4.649
					c-0.002,0.406,0.137,0.943,0.543,0.946c0.198,0.002,0.365-0.139,0.511-0.273c1.278-1.178,2.45-2.471,3.495-3.86
					c0.492,0.57,0.545,1.391,0.512,2.144c-0.032,0.752-0.12,1.537,0.167,2.233c0.287,0.696,1.118,1.24,1.797,0.915
					c0.437-0.208,0.664-0.688,0.854-1.133c0.531-1.247,1.026-2.508,1.487-3.782"/>
				<path style="fill:none;stroke:#95CFB6;stroke-miterlimit:10;" d="M246.069,426.061c-0.553,1.381-0.703,2.921-0.427,4.382
					c0.099,0.525,0.326,1.117,0.838,1.266c0.523,0.151,1.041-0.25,1.381-0.675c1.417-1.779,1.668-4.497,3.603-5.691
					c-0.147,1.468,0.039,2.968,0.54,4.355c0.216,0.598,0.623,1.268,1.26,1.266c0.637-0.002,1.036-0.668,1.305-1.245
					c0.598-1.283,1.195-2.566,1.793-3.849"/>
			</g>
			<g>
				<g>
					<polygon style="fill:#95CFB6;stroke:#000000;stroke-width:0.5;stroke-miterlimit:10;" points="204.159,208.541 
						203.902,243.113 213.478,243.184 213.735,208.541 					"/>
					
						<rect x="203.73" y="212.001" transform="matrix(0.0074 -1 1 0.0074 11.7535 445.42)" style="fill:#D89CC7;stroke:#000000;stroke-width:0.5;stroke-miterlimit:10;" width="53.038" height="9.576"/>
					
						<rect x="228.016" y="215.107" transform="matrix(0.0074 -1 1 0.0074 29.8297 469.8416)" style="fill:#95CFB6;stroke:#000000;stroke-width:0.5;stroke-miterlimit:10;" width="47.145" height="9.576"/>
					
						<rect x="259.187" y="226.672" transform="matrix(0.0074 -1 1 0.0074 37.8719 501.0738)" style="fill:#D89CC7;stroke:#000000;stroke-width:0.5;stroke-miterlimit:10;" width="24.309" height="9.576"/>
				</g>
				
					<line style="fill:none;stroke:#1B2258;stroke-width:0.75;stroke-miterlimit:10;" x1="195.914" y1="243.129" x2="280.125" y2="243.859"/>
				
					<line style="fill:none;stroke:#000000;stroke-width:0.5;stroke-miterlimit:10;" x1="233.426" y1="193.589" x2="233.426" y2="208.173"/>
				<path style="fill:none;stroke:#000000;stroke-width:0.5;stroke-miterlimit:10;" d="M233.016,210.35
					c0.143,1.955,0.146,3.921,0.007,5.877"/>
				<path style="fill:none;stroke:#000000;stroke-width:0.5;stroke-miterlimit:10;" d="M211.451,217.534
					c0.073,2.612,0.146,5.224,0.219,7.836"/>
				
					<line style="fill:none;stroke:#000000;stroke-width:0.5;stroke-miterlimit:10;" x1="274.814" y1="225.805" x2="274.814" y2="231.9"/>
				
					<line style="fill:none;stroke:#000000;stroke-width:0.5;stroke-miterlimit:10;" x1="274.596" y1="235.382" x2="274.596" y2="238.245"/>
				
					<line style="fill:none;stroke:#000000;stroke-width:0.5;stroke-miterlimit:10;" x1="254.788" y1="221.016" x2="254.788" y2="230.161"/>
				<path style="fill:none;stroke:#000000;stroke-width:0.5;stroke-miterlimit:10;" d="M253.047,218.186c0,0.871,0,1.741,0,2.612"/>
				<path style="fill:none;stroke:#000000;stroke-width:0.5;stroke-miterlimit:10;" d="M254.57,214.268c0,0.871,0,1.741,0,2.612"/>
			</g>
			<g>
				
					<ellipse transform="matrix(0.2286 -0.9735 0.9735 0.2286 188.4009 442.9868)" style="fill:#FFFFFF;stroke:#000000;stroke-width:0.5;stroke-miterlimit:10;" cx="373.737" cy="102.608" rx="11.502" ry="11.502"/>
				<g>
					<path d="M373.065,108.951c-0.06,0.012-0.107,0.018-0.143,0.018s-0.072,0-0.107,0c-0.369,0-0.702-0.012-1-0.036
						c-0.297-0.024-0.574-0.06-0.83-0.107c-0.256-0.048-0.503-0.107-0.741-0.178c-0.238-0.071-0.482-0.149-0.732-0.232
						c0.024-0.261,0.074-0.526,0.152-0.794c0.077-0.268,0.164-0.526,0.259-0.776c0.404,0.131,0.821,0.247,1.25,0.348
						c0.428,0.101,0.946,0.152,1.553,0.152c0.976,0,1.702-0.19,2.178-0.571c0.476-0.381,0.714-0.904,0.714-1.57
						c0-0.333-0.051-0.613-0.152-0.839c-0.101-0.226-0.253-0.422-0.455-0.589c-0.202-0.166-0.458-0.318-0.767-0.455
						c-0.309-0.137-0.672-0.295-1.089-0.473l-0.857-0.357c-0.357-0.143-0.684-0.303-0.982-0.482
						c-0.298-0.178-0.557-0.39-0.776-0.634c-0.22-0.244-0.39-0.533-0.509-0.866c-0.119-0.333-0.178-0.732-0.178-1.196
						c0-0.916,0.277-1.666,0.83-2.249c0.553-0.583,1.347-0.946,2.383-1.089v-1.731c0.178-0.047,0.381-0.071,0.607-0.071
						c0.238,0,0.452,0.024,0.642,0.071v1.66c0.5,0.024,0.991,0.077,1.472,0.16c0.482,0.084,0.895,0.19,1.241,0.321
						c-0.06,0.5-0.191,0.994-0.393,1.481c-0.321-0.119-0.69-0.223-1.107-0.312c-0.417-0.089-0.899-0.134-1.446-0.134
						c-0.75,0-1.327,0.143-1.731,0.428c-0.405,0.286-0.607,0.726-0.607,1.321c0,0.285,0.053,0.533,0.161,0.741
						c0.107,0.208,0.265,0.393,0.473,0.553c0.208,0.161,0.458,0.306,0.75,0.437c0.291,0.131,0.621,0.274,0.991,0.429l0.678,0.285
						c0.428,0.179,0.815,0.363,1.16,0.553c0.345,0.19,0.639,0.417,0.883,0.678c0.244,0.262,0.434,0.571,0.571,0.928
						s0.205,0.791,0.205,1.303c0,1.011-0.288,1.835-0.866,2.472c-0.577,0.637-1.389,1.056-2.436,1.258v2.052
						c-0.095,0.024-0.196,0.042-0.304,0.054c-0.107,0.012-0.208,0.018-0.303,0.018c-0.107,0-0.214-0.006-0.321-0.018
						c-0.107-0.012-0.214-0.03-0.321-0.054V108.951z"/>
				</g>
			</g>
			<g>
				
					<ellipse transform="matrix(0.9239 -0.3827 0.3827 0.9239 -70.8519 52.3792)" style="fill:#FFFFFF;stroke:#000000;stroke-width:0.5;stroke-miterlimit:10;" cx="96.238" cy="204.288" rx="12.417" ry="12.417"/>
				<g>
					<path d="M95.513,211.136c-0.065,0.013-0.116,0.019-0.154,0.019c-0.038,0-0.077,0-0.116,0c-0.398,0-0.758-0.013-1.079-0.039
						c-0.321-0.026-0.62-0.064-0.896-0.115c-0.276-0.052-0.543-0.116-0.8-0.193c-0.257-0.077-0.52-0.16-0.79-0.251
						c0.025-0.282,0.08-0.568,0.164-0.857c0.083-0.289,0.176-0.568,0.279-0.838c0.437,0.142,0.887,0.267,1.349,0.376
						c0.463,0.109,1.021,0.164,1.676,0.164c1.053,0,1.837-0.205,2.351-0.617c0.514-0.411,0.771-0.976,0.771-1.695
						c0-0.36-0.055-0.661-0.164-0.906c-0.109-0.244-0.273-0.456-0.492-0.636c-0.219-0.18-0.495-0.343-0.829-0.491
						c-0.334-0.147-0.726-0.318-1.175-0.511l-0.925-0.385c-0.385-0.154-0.739-0.328-1.06-0.52c-0.321-0.193-0.601-0.42-0.838-0.684
						c-0.238-0.263-0.421-0.575-0.549-0.935c-0.128-0.359-0.192-0.79-0.192-1.291c0-0.989,0.299-1.798,0.896-2.428
						c0.597-0.629,1.455-1.021,2.572-1.175v-1.869c0.193-0.051,0.411-0.077,0.655-0.077c0.257,0,0.488,0.026,0.693,0.077v1.792
						c0.54,0.026,1.07,0.084,1.59,0.173c0.52,0.09,0.967,0.206,1.339,0.347c-0.064,0.54-0.206,1.073-0.424,1.599
						c-0.347-0.128-0.745-0.241-1.195-0.337c-0.45-0.096-0.97-0.145-1.561-0.145c-0.809,0-1.432,0.154-1.869,0.462
						c-0.437,0.308-0.655,0.784-0.655,1.426c0,0.308,0.058,0.575,0.173,0.8c0.116,0.225,0.286,0.424,0.511,0.597
						c0.224,0.173,0.494,0.331,0.809,0.472c0.315,0.142,0.671,0.296,1.069,0.463l0.732,0.308c0.462,0.193,0.88,0.392,1.252,0.597
						c0.372,0.206,0.69,0.45,0.954,0.732c0.263,0.283,0.469,0.617,0.617,1.002c0.148,0.385,0.222,0.854,0.222,1.407
						c0,1.092-0.312,1.982-0.935,2.669c-0.623,0.687-1.5,1.14-2.63,1.359v2.216c-0.103,0.026-0.212,0.045-0.328,0.058
						c-0.115,0.013-0.225,0.019-0.327,0.019c-0.116,0-0.231-0.007-0.347-0.019c-0.116-0.013-0.231-0.032-0.347-0.058V211.136z"/>
				</g>
			</g>
			<g>
				
					<ellipse transform="matrix(0.2259 -0.9741 0.9741 0.2259 129.9852 582.21)" style="fill:#FFFFFF;stroke:#000000;stroke-width:0.5;stroke-miterlimit:10;" cx="431.329" cy="209.316" rx="11.025" ry="11.025"/>
				<g>
					<path d="M430.685,215.397c-0.057,0.011-0.103,0.017-0.137,0.017c-0.034,0-0.069,0-0.103,0c-0.354,0-0.673-0.012-0.958-0.034
						c-0.285-0.023-0.55-0.057-0.796-0.103c-0.245-0.046-0.482-0.103-0.71-0.171c-0.228-0.068-0.462-0.142-0.701-0.222
						c0.023-0.251,0.071-0.505,0.145-0.761c0.074-0.257,0.157-0.505,0.248-0.744c0.388,0.126,0.787,0.237,1.198,0.333
						c0.411,0.097,0.907,0.145,1.488,0.145c0.935,0,1.631-0.182,2.087-0.547c0.456-0.365,0.684-0.867,0.684-1.506
						c0-0.319-0.049-0.587-0.145-0.804c-0.097-0.217-0.242-0.405-0.436-0.565c-0.194-0.16-0.439-0.305-0.736-0.436
						c-0.296-0.131-0.644-0.282-1.044-0.453l-0.821-0.342c-0.342-0.137-0.656-0.291-0.941-0.462
						c-0.286-0.171-0.534-0.373-0.744-0.607c-0.211-0.234-0.374-0.51-0.488-0.83c-0.114-0.319-0.171-0.701-0.171-1.146
						c0-0.878,0.265-1.597,0.796-2.156c0.53-0.559,1.292-0.907,2.284-1.044v-1.66c0.171-0.046,0.365-0.068,0.582-0.068
						c0.228,0,0.433,0.023,0.616,0.068v1.591c0.479,0.023,0.95,0.074,1.411,0.154c0.462,0.08,0.858,0.183,1.189,0.308
						c-0.057,0.479-0.183,0.952-0.376,1.42c-0.308-0.114-0.662-0.214-1.061-0.299c-0.4-0.085-0.861-0.128-1.386-0.128
						c-0.718,0-1.272,0.137-1.66,0.411c-0.388,0.274-0.581,0.696-0.581,1.266c0,0.274,0.051,0.511,0.154,0.71
						c0.103,0.2,0.254,0.376,0.453,0.53c0.199,0.154,0.439,0.294,0.718,0.419c0.279,0.126,0.596,0.262,0.95,0.411l0.65,0.274
						c0.411,0.171,0.781,0.348,1.112,0.53c0.331,0.183,0.613,0.4,0.847,0.65c0.234,0.251,0.416,0.548,0.548,0.89
						c0.131,0.342,0.197,0.759,0.197,1.249c0,0.97-0.277,1.759-0.83,2.369c-0.553,0.61-1.332,1.012-2.335,1.206v1.967
						c-0.091,0.023-0.188,0.04-0.291,0.051c-0.102,0.011-0.199,0.017-0.291,0.017c-0.103,0-0.205-0.006-0.308-0.017
						c-0.103-0.011-0.205-0.029-0.308-0.051V215.397z"/>
				</g>
			</g>
			<g>
				<g>
					<rect x="148.137" y="77.866" width="49.116" height="30.913"/>
					
						<rect x="142.506" y="73.381" style="fill:#95CFB6;stroke:#000000;stroke-width:0.5;stroke-miterlimit:10;" width="49.116" height="30.913"/>
					<path style="fill:none;stroke:#000000;stroke-width:0.5;stroke-miterlimit:10;" d="M191.622,73.381
						c0,0-22.767,13.994-24.558,15.456l-24.558-15.456"/>
				</g>
				<path style="fill:none;stroke:#000000;stroke-width:0.5;stroke-miterlimit:10;" d="M189.415,92.531
					c0.219,2.592,0.227,5.202,0.023,7.796"/>
				<path style="fill:none;stroke:#000000;stroke-width:0.5;stroke-miterlimit:10;" d="M189.334,90.991
					c0.036-0.957,0.072-1.915,0.108-2.872"/>
				<path style="fill:none;stroke:#000000;stroke-width:0.5;stroke-miterlimit:10;" d="M187.991,90.376c0,0.684,0,1.368,0,2.052"/>
				<path style="fill:none;stroke:#000000;stroke-width:0.5;stroke-miterlimit:10;" d="M167.885,86.375c0,0,3.457-2.184,4.616-2.975
					"/>
				<path style="fill:none;stroke:#000000;stroke-width:0.5;stroke-miterlimit:10;" d="M173.919,82.351
					c0.487-0.38,1.011-0.714,1.561-0.995"/>
			</g>
			<g>
				<g>
					<path style="fill:#D47172;stroke:#000000;stroke-width:0.5;stroke-miterlimit:10;" d="M396.542,137.414
						c10.409,0.012,20.811,1.893,30.469,5.719c6.323,2.505,14.417,7.329,14.417,15.119c0,6.805-6.614,11.478-12.063,14.194
						c-4.169,2.077-8.658,3.499-13.196,4.525c-6.092,1.368-12.468,2.164-18.871,2.28c-0.547,6.682-3.226,13.199-7.646,18.249
						c-1.671,1.908-3.736,3.692-6.246,4.053c4.151-6.696,6.063-14.688,5.665-22.549c-8.107-0.624-16.085-2.416-23.406-5.643
						c-6.053-2.668-14.008-7.557-14.009-15.109c0.001-9.011,9.817-13.865,17.166-16.339
						C377.706,138.922,387.128,137.404,396.542,137.414z"/>
					<path style="fill:none;stroke:#000000;stroke-width:0.5;stroke-miterlimit:10;" d="M427.626,156.618
						c-0.416,3.713-3.78,6.804-7.356,6.76c-3.576-0.044-6.869-3.217-7.201-6.939c-0.125-1.397,0.282-3.045,1.516-3.599
						c1.234-0.554,2.739,0.357,3.259,1.652c0.519,1.295,0.255,2.798-0.278,4.087c-1.622,3.919-5.833,6.479-9.893,6.014
						c-4.06-0.465-7.641-3.917-8.413-8.11c-0.264-1.434-0.111-3.163,1.043-3.985c1.431-1.019,3.571,0.183,4.069,1.916
						s-0.228,3.615-1.274,5.058c-2.178,3.002-5.872,4.537-9.425,4.377c-1.595-0.072-3.683-0.46-5.009-1.421
						c-1.947-1.41-3.893-5.943-2.364-8.221c0.302-0.45,0.79-0.802,1.316-0.779c0.358,0.015,0.693,0.201,0.964,0.445
						c0.698,0.628,1.013,1.622,1.04,2.584c0.056,1.982-1.057,4.199-2.309,5.652c-2.329,2.705-6.373,3.512-9.582,2.102
						c-3.209-1.41-5.45-4.841-5.766-8.465c-0.118-1.358,0.437-3.169,1.74-3.099c0.961,0.051,1.532,1.148,1.743,2.129
						c0.611,2.831-0.254,5.962-2.215,8.016c-1.961,2.054-4.954,2.966-7.663,2.333"/>
				</g>
				<path style="fill:none;stroke:#000000;stroke-width:0.5;stroke-miterlimit:10;" d="M435.802,162.891
					c-1.921,4.407-6.656,6.885-11.275,8.219"/>
				<path style="fill:none;stroke:#000000;stroke-width:0.5;stroke-miterlimit:10;" d="M422.215,172.188
					c-1.465,0.694-3.05,1.133-4.664,1.289"/>
				<path style="fill:none;stroke:#000000;stroke-width:0.5;stroke-miterlimit:10;" d="M368.843,145.712
					c-3.611,1.19-7.026,2.973-10.066,5.257"/>
			</g>
			<g>
				<g>
					<path style="fill:#D47172;stroke:#000000;stroke-width:0.5;stroke-miterlimit:10;" d="M151.875,133.784
						c-0.029-0.024-0.058-0.048-0.088-0.072c-1.751-1.42-3.826-2.384-5.938-3.17c-6.132-2.282-12.701-3.16-19.233-3.518
						c-8.703-0.478-17.26-0.437-25.923,0.455c-11.166,1.149-27.332,3.377-29.469,16.981c-0.223,1.417-0.203,2.869,0.105,4.272
						c1.017,4.628,4.934,8.188,9.3,10.029c4.366,1.841,9.184,2.241,13.908,2.61c14.077,1.099,28.414,2.083,42.235-0.51
						c0.043,1.859,0.126,3.724,0.565,5.527c1.472,6.045,7.27,10.756,13.488,10.961c-4.401-2.049-7.041-6.81-7.82-11.602
						c-0.336-2.07-0.369-4.158-0.246-6.249c4.262-1.194,8.473-3.014,11.211-6.441C158.539,147.339,157.458,138.395,151.875,133.784z
						"/>
					<path style="fill:none;stroke:#222221;stroke-width:0.5;stroke-miterlimit:10;" d="M86.459,150.736
						c1.38-4.13,4.529-7.636,8.488-9.448c1.329-0.608,2.818-1.037,4.247-0.731c2.764,0.592,4.279,3.692,4.447,6.514
						c0.061,1.018-0.012,2.088-0.529,2.967c-0.517,0.879-1.578,1.502-2.564,1.238c-1.022-0.273-1.632-1.416-1.581-2.472
						c0.051-1.057,0.622-2.02,1.292-2.839c1.463-1.79,3.456-3.107,5.612-3.943c2.834-1.099,6.259-1.313,8.737,0.447
						c2.478,1.76,3.204,5.922,0.838,7.831c-0.481,0.388-1.103,0.67-1.709,0.549c-1.428-0.286-1.558-2.334-0.979-3.67
						c1.374-3.168,4.684-5.212,8.096-5.745c1.599-0.25,3.355-0.176,4.669,0.769c2.48,1.783,2.148,5.686,0.589,8.312
						c-0.291,0.489-0.647,0.987-1.18,1.186c-1.002,0.374-2.115-0.584-2.258-1.644c-0.143-1.06,0.403-2.09,1.048-2.944
						c1.727-2.287,4.32-3.904,7.133-4.447c2.227-0.43,4.919,0.01,6.062,1.969c1.14,1.953,0.224,4.478-1.108,6.305
						c-0.22,0.301-0.509,0.624-0.881,0.61c-0.335-0.013-0.59-0.295-0.8-0.556c-2.407-2.99-0.517-5.03,2.1-7.178
						c1.73-1.421,4.193-1.895,6.327-1.218"/>
				</g>
				<path style="fill:none;stroke:#000000;stroke-width:0.5;stroke-miterlimit:10;" d="M153.307,144.753
					c0.152,2.56-1.127,5.076-3.034,6.791c-1.907,1.715-4.379,2.699-6.894,3.206"/>
				<path style="fill:none;stroke:#000000;stroke-width:0.5;stroke-miterlimit:10;" d="M152.747,141.562
					c-0.099-1.711-1.356-3.101-2.542-4.337"/>
				<path style="fill:none;stroke:#000000;stroke-width:0.5;stroke-miterlimit:10;" d="M82.576,134.5
					c-2.726,0.855-5.124,2.716-6.629,5.144c-1.505,2.428-2.104,5.404-1.657,8.225"/>
				<path style="fill:none;stroke:#000000;stroke-width:0.5;stroke-miterlimit:10;" d="M74.991,150.26
					c0.459,1.322,1.279,2.516,2.347,3.419"/>
				<path style="fill:none;stroke:#000000;stroke-width:0.5;stroke-miterlimit:10;" d="M77.741,140.376
					c-0.801,1.077-1.314,2.367-1.472,3.7"/>
			</g>
			<path style="fill:none;stroke:#222221;stroke-width:0.5;stroke-miterlimit:10;" d="M132.857,438.831c4.008,0,8.017,0,12.025,0"/>
			<path style="fill:none;stroke:#222221;stroke-width:0.5;stroke-miterlimit:10;" d="M71.301,438.831
				c15.642,0.197,31.642,0.197,47.479,0"/>
			
				<line style="fill:none;stroke:#222221;stroke-width:0.5;stroke-miterlimit:10;" x1="156.52" y1="438.831" x2="191.809" y2="438.831"/>
			<path style="fill:none;stroke:#222221;stroke-width:0.5;stroke-miterlimit:10;" d="M367.792,448.618c2.846,0,5.692,0,8.538,0"/>
		</g>
	</g>
</g>
</svg>
