<svg xmlns="http://www.w3.org/2000/svg" data-name="Layer 1" viewBox="0 0 100 125" x="0px" y="0px"><title>Artboard 25</title><path d="M51.06,56.3a1.87,1.87,0,0,1-1.13.31h0l-.23,0a2,2,0,0,1-.74-.29l-5.23-3.6-31.95,22a3,3,0,0,0,1.3.3H87a3,3,0,0,0,1.29-.31l-31.94-22ZM72.39,37.38A14.67,14.67,0,0,1,70.78,25H13.05a3,3,0,0,0-2.13.89L50,52.8ZM10,29.48V72a2,2,0,0,0,0,.34L41.08,50.88ZM74.59,40.09,58.91,50.89,90,72.29c0-.11,0-.22,0-.34V43.33a14.65,14.65,0,0,1-15.41-3.24ZM85,18a11.5,11.5,0,1,0,11.5,11.5A11.51,11.51,0,0,0,85,18ZM83.51,35.22l-4.83-4.83,2.57-2.56,2.32,2.52,6.24-5.19,1.87,1.9Z"/><text x="0" y="115" fill="#000000" font-size="5px" font-weight="bold" font-family="'Helvetica Neue', Helvetica, Arial-Unicode, Arial, Sans-serif">Created by Creators</text><text x="0" y="120" fill="#000000" font-size="5px" font-weight="bold" font-family="'Helvetica Neue', Helvetica, Arial-Unicode, Arial, Sans-serif">from the Noun Project</text></svg>